<?xml version="1.0" encoding="UTF-8" standalone="no"?>
<!-- Created with Inkscape (http://www.inkscape.org/) -->

<svg
   width="270.93332mm"
   height="132.29167mm"
   viewBox="0 0 270.93332 132.29167"
   version="1.1"
   id="svg1"
   inkscape:version="1.4 (e7c3feb1, 2024-10-09)"
   sodipodi:docname="feature-graphic.svg"
   inkscape:export-filename="feature-graphic.png"
   inkscape:export-xdpi="96"
   inkscape:export-ydpi="96"
   xmlns:inkscape="http://www.inkscape.org/namespaces/inkscape"
   xmlns:sodipodi="http://sodipodi.sourceforge.net/DTD/sodipodi-0.dtd"
   xmlns="http://www.w3.org/2000/svg"
   xmlns:svg="http://www.w3.org/2000/svg">
  <sodipodi:namedview
     id="namedview1"
     pagecolor="#ffffff"
     bordercolor="#000000"
     borderopacity="0.25"
     inkscape:showpageshadow="2"
     inkscape:pageopacity="0.0"
     inkscape:pagecheckerboard="0"
     inkscape:deskcolor="#d1d1d1"
     inkscape:document-units="mm"
     inkscape:zoom="1.944336"
     inkscape:cx="511.99997"
     inkscape:cy="146.83676"
     inkscape:window-width="1200"
     inkscape:window-height="1386"
     inkscape:window-x="4266"
     inkscape:window-y="25"
     inkscape:window-maximized="0"
     inkscape:current-layer="layer1" />
  <defs
     id="defs1" />
  <g
     inkscape:label="Layer 1"
     inkscape:groupmode="layer"
     id="layer1"
     transform="translate(-27.668978,-17.07235)">
    <rect
       style="fill:#77aaff;stroke-width:0.264999;stroke-dasharray:0.264583, 0.529167;fill-opacity:1"
       id="rect2"
       width="270.93332"
       height="132.29167"
       x="27.668978"
       y="17.07235" />
    <path
       id="text3"
       style="font-size:105.833px;font-family:'Comic Neue';-inkscape-font-specification:'Comic Neue';text-align:start;writing-mode:lr-tb;direction:ltr;text-anchor:start;fill:#ffffff;stroke-width:0.264999;stroke-dasharray:0.264583, 0.529167"
       d="m 206.28125,42.806641 c -3.98577,0.271056 -7.18085,4.293133 -6.66269,8.230827 -0.1209,4.770714 -0.2418,9.541428 -0.3627,14.312141 -7.10734,-2.474399 -15.25623,-2.587344 -22.1192,0.722461 -3.95541,1.973845 -7.23542,5.160628 -9.58783,8.881055 -0.1022,-3.149449 -1.32061,-6.277065 -3.55857,-8.52141 -1.78535,-1.861969 -4.2627,-2.958315 -6.8202,-3.180943 -5.90342,-0.777169 -11.9708,1.539319 -16.22865,5.622275 -0.45553,-2.5175 -2.51106,-4.567993 -4.97525,-5.167605 -2.88783,-0.813281 -6.30798,0.274612 -7.91232,2.880443 -1.18512,1.775416 -1.27325,3.995398 -1.11446,6.054349 0.0113,15.039093 -0.0468,30.082436 0.0756,45.118796 0.59,4.53539 6.3713,7.40814 10.31052,5.02519 2.72984,-1.43865 4.14217,-4.72966 3.70088,-7.72641 0.0814,-7.88689 -0.0633,-15.781526 0.27201,-23.662242 0.4421,-3.434638 2.13779,-6.678493 4.55129,-9.209006 2.11047,-2.39343 4.71179,-4.769518 8.01751,-5.143593 -0.2556,2.234768 0.0156,4.688596 1.5255,6.46221 1.62129,2.051809 4.49586,2.847935 6.98216,2.138453 0.35728,0.04132 1.25507,-0.694365 1.06076,-0.09979 -1.28533,6.075258 -1.37274,12.413017 -0.25788,18.52061 1.27573,6.16133 4.38511,12.20371 9.60157,15.91211 5.42174,3.83361 12.67294,4.64101 18.92723,2.56524 2.46438,-0.7571 4.81527,-1.87643 6.97902,-3.27618 1.13089,2.94919 4.43309,4.9202 7.56814,4.29978 3.11349,-0.46045 5.92808,-3.17178 5.94126,-6.41733 0.17027,-2.80013 0.11723,-5.60975 0.24093,-8.41277 0.45979,-19.806296 0.9782,-39.614296 1.35068,-59.420705 -0.33517,-3.6475 -3.78497,-6.830812 -7.50531,-6.507954 z m -116.6875,1.271484 c -8.316605,0.250968 -16.16005,4.457408 -21.780805,10.458166 -7.701424,8.161816 -11.72557,19.365986 -12.05072,30.496042 -0.321183,9.041732 1.658918,18.387547 6.80513,25.938477 4.049797,6.01951 10.347139,10.67447 17.535977,12.0635 8.694488,1.84981 18.12951,-0.57213 24.950158,-6.24788 8.36363,-6.68002 13.56811,-16.788994 15.25236,-27.266576 1.53217,-9.355429 0.61422,-19.246895 -3.38757,-27.897725 -3.18704,-6.829055 -8.71003,-12.76093 -15.79453,-15.565458 -3.642679,-1.474462 -7.605194,-2.140848 -11.53,-1.978546 z m 0.572266,13.953125 c 5.063498,-0.07647 9.802213,3.137316 12.381254,7.4243 3.60086,5.706203 4.44307,12.712225 3.90976,19.323747 -0.71328,7.617502 -3.75889,15.261773 -9.478018,20.497643 -2.991665,2.71484 -6.94578,4.62774 -11.05909,4.39494 -3.515117,-0.14245 -7.015184,-1.82238 -9.498047,-4.36524 C 73.91058,102.66703 72.189489,99.273258 71.266117,95.840057 69.791939,90.307855 69.814357,84.438411 70.84375,78.830078 71.787429,73.97541 73.725524,69.258834 76.828125,65.378906 80.002897,61.381235 84.82037,58.01291 90.166016,58.03125 Z M 245.62305,63.4375 c -8.41631,-0.0553 -16.50746,4.62849 -21.15185,11.562595 -5.92879,8.492254 -7.67481,19.861145 -4.24659,29.669825 2.77886,7.69755 8.97946,14.15558 16.71484,16.9336 8.50677,3.27392 18.57454,2.62145 26.33197,-2.2888 2.49791,-1.56793 4.90895,-3.46288 6.4942,-5.9866 1.5099,-2.77038 0.76228,-6.54193 -1.76362,-8.46198 -2.368,-1.95835 -6.18507,-2.13329 -8.48638,0.0284 -1.26396,1.14386 -2.48815,2.3662 -4.04013,3.12075 -2.90253,1.64809 -6.31409,2.38578 -9.63302,1.94441 -3.69027,-0.41047 -7.38433,-1.95225 -9.79019,-4.86556 -0.61473,-0.48866 0.67169,-0.65527 0.96414,-0.98777 9.89447,-5.680356 19.86422,-11.236732 29.66368,-17.07647 2.61683,-1.929192 3.64789,-5.663236 2.41563,-8.669466 -1.69326,-5.699521 -6.34599,-10.139847 -11.64815,-12.588312 -3.68944,-1.686668 -7.77646,-2.440534 -11.82453,-2.334612 z m 0.0605,13.642578 c 2.81364,-0.0013 5.94006,0.201013 8.23142,2.087443 0.19019,0.265503 -0.7193,0.455823 -0.93373,0.687053 -6.90131,3.819309 -13.80262,7.638617 -20.70394,11.457926 0.64304,-4.974972 3.18592,-9.941509 7.62,-12.529908 1.75047,-1.029496 3.74708,-1.667085 5.78625,-1.702514 z m -56.59179,0.212891 c 2.91731,0.0188 5.78307,0.753929 8.4738,1.87481 0.43233,0.269781 1.27505,0.31369 1.38726,0.805615 -0.15991,7.329683 -0.27369,14.660945 -0.54856,21.987546 -1.14455,3.18197 -4.12866,5.2183 -7.05164,6.62517 -2.95266,1.27637 -6.4016,1.93732 -9.51086,0.84162 -2.67994,-1.24026 -4.05449,-4.14955 -4.72735,-6.87649 -0.80381,-3.305376 -0.82471,-6.936993 -0.58659,-10.428504 0.32635,-3.697025 1.09131,-7.37708 3.2398,-10.464842 1.83693,-2.850123 5.26181,-4.32955 8.58195,-4.341488 0.19214,-0.0029 0.50443,-0.01763 0.74219,-0.02344 z" />
    <text
       xml:space="preserve"
       style="font-size:105.833px;font-family:'Comic Neue';-inkscape-font-specification:'Comic Neue';text-align:start;writing-mode:lr-tb;direction:ltr;text-anchor:start;fill:#000000;stroke-width:0.264999;stroke-dasharray:0.264583, 0.529167"
       x="54.339359"
       y="119.30724"
       id="text2"><tspan
         sodipodi:role="line"
         id="tspan2"
         style="fill:#000000;stroke-width:0.265"
         x="54.339359"
         y="119.30724">Orde</tspan></text>
  </g>
</svg>
